# Blender v2.73 (sub 0) OBJ File: 'cactus.blend'
# www.blender.org
o Cube.002_Cube.006
v -0.295014 1.626970 0.106484
v 0.304276 1.626970 0.106484
v 0.304276 2.147619 0.106484
v -0.295015 2.147618 0.106484
v -0.295014 1.626971 1.224493
v 0.304277 1.626971 1.224493
v 0.304276 2.147619 1.224493
v -0.295014 2.147619 1.224493
v -0.295014 2.144028 1.218198
v 0.304276 2.144028 1.218197
v 0.304276 2.144028 0.697549
v -0.295014 2.144028 0.697550
v -0.295014 3.317647 1.218198
v 0.304277 3.317647 1.218197
v 0.304276 3.317647 0.697549
v -0.295014 3.317647 0.697550
v -0.273294 1.992687 -0.299645
v -0.273294 1.992687 0.299645
v -0.273294 2.513335 0.299645
v -0.273294 2.513335 -0.299646
v -1.391303 1.992687 -0.299645
v -1.391303 1.992688 0.299646
v -1.391303 2.513336 0.299645
v -1.391303 2.513336 -0.299645
v -1.385008 2.509745 -0.299645
v -1.385008 2.509745 0.299645
v -0.864359 2.509745 0.299645
v -0.864360 2.509745 -0.299646
v -1.385008 3.683364 -0.299645
v -1.385007 3.683364 0.299646
v -0.864359 3.683364 0.299645
v -0.864360 3.683364 -0.299645
v 0.266940 1.471684 0.299645
v 0.266940 1.471684 -0.299645
v 0.266940 1.992332 -0.299645
v 0.266940 1.992332 0.299645
v 1.384949 1.471684 0.299645
v 1.384949 1.471684 -0.299645
v 1.384949 1.992332 -0.299645
v 1.384949 1.992332 0.299645
v 1.378654 1.988741 0.299645
v 1.378654 1.988741 -0.299645
v 0.858006 1.988741 -0.299645
v 0.858006 1.988741 0.299646
v 1.378654 3.162360 0.299645
v 1.378653 3.162360 -0.299645
v 0.858006 3.162360 -0.299645
v 0.858006 3.162360 0.299645
v 0.260324 -0.415507 0.299645
v 0.260324 -0.415507 -0.299645
v -0.260324 -0.415507 -0.299645
v -0.260324 -0.415507 0.299645
v 0.260324 3.879523 0.299645
v 0.260324 3.879523 -0.299645
v -0.260324 3.879523 -0.299645
v -0.260324 3.879523 0.299645
vt 0.325333 0.565862
vt 0.325333 0.621529
vt 0.450815 0.621529
vt 0.450815 0.565862
vt 0.763685 0.515193
vt 0.763685 0.389711
vt 0.494233 0.389711
vt 0.763685 0.565862
vt 0.763685 0.621529
vt 0.494233 0.621529
vt 0.763685 0.640675
vt 0.494233 0.640675
vt 0.387239 0.565862
vt 0.117786 0.565862
vt 0.117786 0.621529
vt 0.385722 0.389711
vt 0.260240 0.389711
vt 0.260240 0.515193
vt 0.450815 0.621145
vt 0.325333 0.621145
vt 0.325333 0.495663
vt 0.385722 0.621145
vt 0.260240 0.621145
vt 0.260240 0.495663
vt 0.450815 0.495663
vt 0.576298 0.621145
vt 0.385722 0.370181
vt 0.260240 0.370181
vt 0.396351 0.479482
vt 0.540787 0.479482
vt 0.540787 0.535149
vt 0.396351 0.535149
vt 0.396351 0.744739
vt 0.540787 0.744739
vt 0.540787 0.510645
vt 0.680361 0.479482
vt 0.680361 0.535149
vt 0.446267 0.535149
vt 0.415305 0.744739
vt 0.270869 0.744739
vt 0.270869 0.510645
vt 0.195303 0.479482
vt 0.195303 0.535149
vt 0.429397 0.535149
vt 0.396351 0.492457
vt 0.540787 0.492457
vt 0.540787 0.383441
vt 0.396351 0.383441
vt 0.396351 0.660247
vt 0.540787 0.660247
vt 0.540787 0.534765
vt 0.428079 0.660247
vt 0.319063 0.660247
vt 0.319063 0.534765
vt 0.415305 0.534765
vt 0.415305 0.660247
vt 0.270869 0.660247
vt 0.428079 0.409283
vt 0.319063 0.409283
vt 0.270869 0.549258
vt 0.270869 0.604926
vt 0.415305 0.604926
vt 0.415305 0.288917
vt 0.270869 0.288917
vt 0.270869 0.523011
vt 0.458633 0.549258
vt 0.224540 0.549259
vt 0.224540 0.604926
vt 0.396351 0.288917
vt 0.540787 0.288917
vt 0.540787 0.523011
vt 0.475504 0.549258
vt 0.709597 0.549258
vt 0.709597 0.604926
vt 0.270869 0.541200
vt 0.270869 0.650215
vt 0.415305 0.650215
vt 0.415305 0.604542
vt 0.270869 0.604542
vt 0.270869 0.479060
vt 0.476822 0.604542
vt 0.585837 0.604542
vt 0.585837 0.479060
vt 0.396351 0.479060
vt 0.396351 0.604542
vt 0.540787 0.604542
vt 0.476822 0.353577
vt 0.585837 0.353577
vt 0.270869 0.524396
vt 0.270869 0.633412
vt 0.415305 0.633412
vt 0.415305 0.472964
vt 0.415305 0.932184
vt 0.270869 0.932184
vt 0.460018 0.472964
vt 0.460018 0.932184
vt 0.569034 0.932184
vt 0.396351 0.932184
vt 0.540787 0.932184
vt 0.540787 0.472964
vt 0.460018 0.096518
vt 0.569034 0.096518
vt 0.569034 0.555738
vt 0.494233 0.515193
vt 0.494233 0.565862
vt 0.387239 0.621529
vt 0.385722 0.515193
vt 0.385722 0.495663
vt 0.576298 0.495663
vt 0.396351 0.510645
vt 0.446267 0.479482
vt 0.415305 0.510645
vt 0.429397 0.479482
vt 0.396351 0.534765
vt 0.428079 0.534765
vt 0.270869 0.534765
vt 0.415305 0.549258
vt 0.415305 0.523011
vt 0.458633 0.604926
vt 0.396351 0.523011
vt 0.475504 0.604926
vt 0.415305 0.541200
vt 0.415305 0.479060
vt 0.476822 0.479060
vt 0.540787 0.479060
vt 0.415305 0.524396
vt 0.270869 0.472964
vt 0.569034 0.472964
vt 0.396351 0.472964
vt 0.460018 0.555738
vn 0.000000 0.000000 1.000000
vn -0.000000 -0.000000 -1.000000
vn -0.000000 1.000000 -0.000000
vn -1.000000 -0.000000 0.000000
vn 0.000000 -1.000000 0.000000
vn 1.000000 0.000000 -0.000000
s off
f 2/1/1 3/2/1 4/3/1
f 5/4/2 8/3/2 7/2/2
f 5/5/3 6/6/3 2/7/3
f 6/8/4 7/9/4 3/10/4
f 7/5/5 8/11/5 4/12/5
f 5/13/6 1/14/6 4/15/6
f 10/16/3 11/17/3 12/18/3
f 16/18/5 15/17/5 14/16/5
f 13/19/2 14/20/2 10/21/2
f 14/22/4 15/23/4 11/24/4
f 11/25/1 15/19/1 16/26/1
f 9/27/6 12/28/6 16/24/6
f 17/29/4 18/30/4 19/31/4
f 21/29/6 24/32/6 23/31/6
f 21/33/3 22/34/3 18/35/3
f 22/36/2 23/37/2 19/38/2
f 23/39/5 24/40/5 20/41/5
f 17/42/1 20/43/1 24/44/1
f 25/45/3 26/46/3 27/47/3
f 29/45/5 32/48/5 31/47/5
f 29/49/6 30/50/6 26/51/6
f 30/52/2 31/53/2 27/54/2
f 27/55/4 31/56/4 32/57/4
f 25/58/1 28/59/1 32/54/1
f 34/60/6 35/61/6 36/62/6
f 40/62/4 39/61/4 38/60/4
f 37/63/3 38/64/3 34/65/3
f 34/66/1 38/67/1 39/68/1
f 39/69/5 40/70/5 36/71/5
f 37/72/2 33/73/2 36/74/2
f 42/75/3 43/76/3 44/77/3
f 48/77/5 47/76/5 46/75/5
f 45/78/4 46/79/4 42/80/4
f 46/81/1 47/82/1 43/83/1
f 43/84/6 47/85/6 48/86/6
f 41/87/2 44/88/2 48/83/2
f 50/89/3 51/90/3 52/91/3
f 56/91/5 55/90/5 54/89/5
f 49/92/4 53/93/4 54/94/4
f 50/95/1 54/96/1 55/97/1
f 55/98/6 56/99/6 52/100/6
f 49/101/2 52/102/2 56/103/2
f 1/4/1 2/1/1 4/3/1
f 6/1/2 5/4/2 7/2/2
f 1/104/3 5/5/3 2/7/3
f 2/105/4 6/8/4 3/10/4
f 3/104/5 7/5/5 4/12/5
f 8/106/6 5/13/6 4/15/6
f 9/107/3 10/16/3 12/18/3
f 13/107/5 16/18/5 14/16/5
f 9/25/2 13/19/2 10/21/2
f 10/108/4 14/22/4 11/24/4
f 12/109/1 11/25/1 16/26/1
f 13/108/6 9/27/6 16/24/6
f 20/32/4 17/29/4 19/31/4
f 22/30/6 21/29/6 23/31/6
f 17/110/3 21/33/3 18/35/3
f 18/111/2 22/36/2 19/38/2
f 19/112/5 23/39/5 20/41/5
f 21/113/1 17/42/1 24/44/1
f 28/48/3 25/45/3 27/47/3
f 30/46/5 29/45/5 31/47/5
f 25/114/6 29/49/6 26/51/6
f 26/115/2 30/52/2 27/54/2
f 28/116/4 27/55/4 32/57/4
f 29/115/1 25/58/1 32/54/1
f 33/117/6 34/60/6 36/62/6
f 37/117/4 40/62/4 38/60/4
f 33/118/3 37/63/3 34/65/3
f 35/119/1 34/66/1 39/68/1
f 35/120/5 39/69/5 36/71/5
f 40/121/2 37/72/2 36/74/2
f 41/122/3 42/75/3 44/77/3
f 45/122/5 48/77/5 46/75/5
f 41/123/4 45/78/4 42/80/4
f 42/124/1 46/81/1 43/83/1
f 44/125/6 43/84/6 48/86/6
f 45/124/2 41/87/2 48/83/2
f 49/126/3 50/89/3 52/91/3
f 53/126/5 56/91/5 54/89/5
f 50/127/4 49/92/4 54/94/4
f 51/128/1 50/95/1 55/97/1
f 51/129/6 55/98/6 52/100/6
f 53/130/2 49/101/2 56/103/2
