# Blender v2.73 (sub 0) OBJ File: 'wall.blend'
# www.blender.org
o Cube.002
v 0.500006 0.000000 -13.282055
v 25.499992 0.000000 -13.282057
v 25.499992 0.000000 11.717934
v 0.500002 0.000000 11.717929
v 0.500011 75.000000 -13.282061
v 25.500000 75.000000 -13.282048
v 25.499990 75.000000 11.717937
v 0.500007 75.000000 11.717933
v 0.500011 97.788239 -13.282061
v 25.500000 97.788239 -13.282048
v 25.499990 97.788239 11.717937
v 0.500007 97.788239 11.717933
v 13.000002 116.572273 -0.782060
v 0.500001 0.000004 11.430472
v 25.499989 -0.000008 11.430470
v 25.500000 -0.000008 361.430481
v 0.500010 0.000004 361.430420
v 0.500007 75.000000 11.430389
v 25.499996 74.999992 11.430590
v 25.500000 74.999992 361.430511
v 0.500014 75.000000 361.430481
v 375.000000 -0.000103 -12.499992
v 375.000000 -0.000103 12.499994
v 24.999973 -0.000004 12.499992
v 25.000053 -0.000004 -12.499998
v 375.000092 74.999893 -12.499987
v 374.999878 74.999893 12.500002
v 24.999935 75.000000 12.499989
v 25.000006 75.000000 -12.499993
vt 1.000000 0.000000
vt 1.000000 1.000000
vt 0.000000 1.000000
vt 0.000000 0.000000
vn 0.000000 -1.000000 0.000000
vn -0.000000 0.000000 1.000000
vn 0.000000 0.000000 -1.000000
vn 1.000000 -0.000000 0.000000
vn -1.000000 0.000000 -0.000000
vn -0.000000 0.554000 0.832500
vn 0.832500 0.554000 0.000000
vn -0.832500 0.554000 -0.000000
vn 0.000000 0.554000 -0.832500
vn 0.000000 1.000000 -0.000000
s off
f 2/1/1 3/2/1 4/3/1
f 7/1/2 11/2/2 12/3/2
f 5/1/3 6/2/3 2/3/3
f 6/1/4 7/2/4 3/3/4
f 7/1/2 8/2/2 4/3/2
f 1/1/5 4/2/5 8/3/5
f 6/1/4 10/2/4 11/3/4
f 8/1/5 12/2/5 9/3/5
f 5/1/3 9/2/3 10/3/3
f 12/4/6 11/1/6 13/2/6
f 11/4/7 10/1/7 13/2/7
f 9/4/8 12/1/8 13/2/8
f 10/4/9 9/1/9 13/2/9
f 15/1/1 16/2/1 17/3/1
f 21/1/10 20/2/10 19/3/10
f 14/4/3 18/1/3 19/2/3
f 19/1/4 20/2/4 16/3/4
f 20/1/2 21/2/2 17/3/2
f 14/1/5 17/2/5 21/3/5
f 23/1/1 24/2/1 25/3/1
f 29/1/10 28/2/10 27/3/10
f 26/1/4 27/2/4 23/3/4
f 27/1/2 28/2/2 24/3/2
f 24/4/5 28/1/5 29/2/5
f 22/1/3 25/2/3 29/3/3
f 1/4/1 2/1/1 4/3/1
f 8/4/2 7/1/2 12/3/2
f 1/4/3 5/1/3 2/3/3
f 2/4/4 6/1/4 3/3/4
f 3/4/2 7/1/2 4/3/2
f 5/4/5 1/1/5 8/3/5
f 7/4/4 6/1/4 11/3/4
f 5/4/5 8/1/5 9/3/5
f 6/4/3 5/1/3 10/3/3
f 14/4/1 15/1/1 17/3/1
f 18/4/10 21/1/10 19/3/10
f 15/3/3 14/4/3 19/2/3
f 15/4/4 19/1/4 16/3/4
f 16/4/2 20/1/2 17/3/2
f 18/4/5 14/1/5 21/3/5
f 22/4/1 23/1/1 25/3/1
f 26/4/10 29/1/10 27/3/10
f 22/4/4 26/1/4 23/3/4
f 23/4/2 27/1/2 24/3/2
f 25/3/5 24/4/5 29/2/5
f 26/4/3 22/1/3 29/3/3
