# Blender v2.73 (sub 0) OBJ File: 'cerca.blend'
# www.blender.org
o Cube
v -0.062092 1.270597 2.508697
v -0.062092 1.679546 2.508697
v -0.062092 1.270597 -2.637605
v -0.062092 1.679546 -2.637605
v -0.062092 1.270597 2.508697
v -0.062092 1.679546 2.508697
v -0.062092 1.270597 -2.637605
v -0.062092 1.679546 -2.637605
v 0.037908 1.270597 2.508697
v 0.037907 1.679546 2.508697
v 0.037908 1.270597 -2.637605
v 0.037907 1.679546 -2.637605
v -0.062092 0.624278 2.508697
v -0.062092 1.033226 2.508697
v -0.062092 0.624278 -2.637605
v -0.062092 1.033226 -2.637605
v -0.062092 0.624278 2.508697
v -0.062092 1.033226 2.508697
v -0.062092 0.624278 -2.637605
v -0.062092 1.033226 -2.637605
v 0.037907 0.624278 2.508697
v 0.037907 1.033226 2.508697
v 0.037907 0.624278 -2.637605
v 0.037907 1.033226 -2.637605
v 0.027700 -0.016568 1.733675
v 0.027700 -0.016568 2.125674
v -0.054778 -0.016568 2.125674
v -0.054777 -0.016568 1.733675
v 0.027701 1.983432 1.733676
v 0.027700 1.983432 2.125675
v -0.054778 1.983432 2.125674
v -0.054778 1.983432 1.733675
v 0.027700 2.483432 1.926790
v -0.054778 2.483432 1.929665
v 0.027700 -0.016568 0.733675
v 0.027700 -0.016568 1.125674
v -0.054778 -0.016568 1.125674
v -0.054777 -0.016568 0.733675
v 0.027701 1.983432 0.733676
v 0.027700 1.983432 1.125675
v -0.054778 1.983432 1.125674
v -0.054778 1.983432 0.733675
v 0.027700 2.483432 0.926790
v -0.054778 2.483432 0.929665
v 0.027700 -0.016568 -0.266325
v 0.027700 -0.016568 0.125674
v -0.054778 -0.016568 0.125674
v -0.054777 -0.016568 -0.266325
v 0.027701 1.983432 -0.266324
v 0.027700 1.983432 0.125675
v -0.054778 1.983432 0.125674
v -0.054778 1.983432 -0.266325
v 0.027700 2.483432 -0.073210
v -0.054778 2.483432 -0.070335
v 0.027700 -0.016568 -1.266325
v 0.027700 -0.016568 -0.874326
v -0.054778 -0.016568 -0.874326
v -0.054777 -0.016568 -1.266325
v 0.027701 1.983432 -1.266324
v 0.027700 1.983432 -0.874325
v -0.054778 1.983432 -0.874326
v -0.054778 1.983432 -1.266325
v 0.027700 2.483432 -1.073210
v -0.054778 2.483432 -1.070335
v 0.027700 -0.016568 -2.266325
v 0.027700 -0.016568 -1.874326
v -0.054778 -0.016568 -1.874326
v -0.054777 -0.016568 -2.266325
v 0.027701 1.983432 -2.266324
v 0.027700 1.983432 -1.874326
v -0.054778 1.983432 -1.874326
v -0.054778 1.983432 -2.266325
v 0.027700 2.483432 -2.073210
v -0.054778 2.483432 -2.070335
vt 0.173404 1.000799
vt 0.940069 1.000799
vt 0.940069 0.151970
vt 1.549162 0.290115
vt 1.549162 0.340115
vt 0.700332 0.340115
vt 0.348361 0.700332
vt 0.348361 1.549162
vt 0.581696 0.549162
vt 0.581696 -0.299668
vt 0.348361 0.549162
vt -0.418304 0.549162
vt 0.581696 0.700332
vt 1.348361 0.700332
vt 0.738009 0.062854
vt 0.738009 0.911683
vt -0.028655 0.911683
vt -0.299668 0.290115
vt -0.299668 0.340115
vt 0.549162 0.340115
vt 0.348361 0.290115
vt -0.418304 0.290115
vt -0.418304 0.340115
vt 1.348361 0.290115
vt 1.348361 0.340115
vt 0.581696 0.340115
vt 0.113872 1.004773
vt 0.880537 1.004773
vt 0.880537 0.155943
vt 0.560030 0.700332
vt 0.560030 1.549162
vt 0.793365 0.549162
vt 0.793365 -0.299668
vt 0.560030 0.549162
vt -0.206635 0.549162
vt 0.793365 0.700332
vt 1.560030 0.700332
vt 0.949678 0.062854
vt 0.949678 0.911683
vt 0.183014 0.911683
vt -0.206635 0.290115
vt -0.206635 0.340115
vt 0.560030 0.340115
vt 1.560030 0.290115
vt 1.560030 0.340115
vt 0.793365 0.340115
vt 0.173404 0.151970
vt 0.700332 0.290115
vt -0.028655 0.062854
vt 0.549162 0.290115
vt 0.348361 0.340115
vt 0.581696 0.290115
vt 0.113872 0.155943
vt 0.183014 0.062854
vt 0.560030 0.290115
vt 0.793365 0.290115
vt 0.571521 -0.169678
vt 0.571522 0.015886
vt 0.532478 0.015886
vt -0.289098 0.019365
vt -0.288487 0.269227
vt -0.327529 0.269262
vt 1.204803 0.936448
vt 1.019240 -0.010311
vt 1.204804 -0.010311
vt -0.289109 1.199299
vt 0.864563 1.199334
vt 0.864563 0.252575
vt 1.050127 0.252575
vt -0.487418 1.199299
vt -0.526460 1.199334
vt -0.525845 0.268821
vt -0.526460 0.019080
vt -0.487406 0.019296
vt 0.678999 -0.169679
vt 0.678999 0.015886
vt 0.639956 0.015885
vt -0.328763 0.019365
vt -0.328152 0.269227
vt -0.367193 0.269262
vt 1.390368 0.987994
vt 1.390368 0.041235
vt 1.575932 0.041235
vt -0.328774 1.199299
vt -0.063258 1.199334
vt -0.063258 0.252575
vt 0.122306 0.252575
vt -0.566732 1.199299
vt -0.605774 1.199334
vt -0.605159 0.268821
vt -0.605774 0.019080
vt -0.566720 0.019296
vt 0.532478 -0.169679
vt 0.493435 0.015885
vt -0.249433 0.019365
vt -0.248822 0.269227
vt -0.287864 0.269262
vt 1.263194 0.676871
vt 1.263194 0.128940
vt 1.370588 0.128940
vt -0.249445 1.199299
vt 0.678999 0.962644
vt 0.493435 0.962644
vt -0.447761 1.199299
vt -0.486803 1.199334
vt -0.486188 0.268821
vt -0.486803 0.019080
vt -0.447749 0.019296
vt 0.307870 -0.169679
vt 0.307871 0.015886
vt 0.268827 0.015885
vt -0.368428 0.019365
vt -0.367816 0.269227
vt -0.406858 0.269262
vt 0.864563 0.962644
vt -0.368439 1.199299
vt -0.102809 0.028266
vt -0.102809 0.672296
vt -0.229039 0.672296
vt -0.527075 1.199299
vt -0.566117 1.199334
vt -0.565502 0.268821
vt -0.566117 0.019080
vt -0.527063 0.019296
vt 0.639955 -0.169679
vt 0.600912 0.015886
vt -0.408092 0.019365
vt -0.407481 0.269227
vt -0.446523 0.269262
vt 0.307871 0.962644
vt -0.408104 1.199299
vt 0.122307 0.962644
vt -0.606388 1.199299
vt -0.645430 1.199334
vt -0.644816 0.268821
vt -0.645430 0.019080
vt -0.606377 0.019296
vt -0.328151 0.019146
vt 1.019239 0.936448
vt 1.110656 -0.247001
vt -0.328152 1.199334
vt 1.050127 1.199334
vt 0.957350 0.015885
vt -0.486803 0.268787
vt -0.367816 0.019146
vt 1.575932 0.987994
vt 1.481784 -0.195455
vt -0.367816 1.199334
vt 0.122307 1.199334
vt 0.029529 0.015885
vt -0.566117 0.268787
vt 0.493435 -0.169679
vt -0.288486 0.019146
vt 1.370588 0.676871
vt 1.316101 -0.008043
vt -0.288487 1.199334
vt 0.586212 1.199334
vt -0.447146 0.268787
vt 0.268827 -0.169679
vt -0.407481 0.019146
vt 0.864563 0.015885
vt 0.773147 1.199334
vt -0.407481 1.199334
vt -0.229039 0.028266
vt -0.165927 0.833304
vt -0.526460 0.268787
vt 0.600912 -0.169679
vt -0.447146 0.019146
vt 0.402019 1.199334
vt -0.447146 1.199334
vt 0.122307 0.015886
vt 0.215084 1.199334
vt -0.605774 0.268787
vn -1.000000 -0.000000 0.000000
vn 0.000000 -1.000000 0.000000
vn 0.000000 0.000000 1.000000
vn 1.000000 0.000000 0.000000
vn 0.000000 1.000000 0.000000
vn 0.000000 0.000000 -1.000000
vn -0.000000 0.365000 0.931000
vn -0.032400 0.364800 -0.930500
vn 0.032400 0.369400 0.928700
vn 0.000000 0.360300 -0.932800
s off
f 4/1/1 3/2/1 1/3/1
f 7/4/2 11/5/2 9/6/2
f 1/7/3 3/8/3 7/8/3
f 4/9/3 2/10/3 6/10/3
f 3/11/3 4/12/3 8/12/3
f 2/13/3 1/14/3 5/14/3
f 9/15/4 11/16/4 12/17/4
f 6/18/5 10/19/5 12/20/5
f 7/21/6 8/22/6 12/23/6
f 5/24/3 9/25/3 10/26/3
f 16/27/1 15/28/1 13/29/1
f 19/4/2 23/5/2 21/6/2
f 13/30/3 15/31/3 19/31/3
f 16/32/3 14/33/3 18/33/3
f 15/34/3 16/35/3 20/35/3
f 14/36/3 13/37/3 17/37/3
f 21/38/4 23/39/4 24/40/4
f 18/18/5 22/19/5 24/20/5
f 20/41/6 24/42/6 23/43/6
f 17/44/3 21/45/3 22/46/3
f 2/47/1 4/1/1 1/3/1
f 5/48/2 7/4/2 9/6/2
f 5/7/3 1/7/3 7/8/3
f 8/9/3 4/9/3 6/10/3
f 7/11/3 3/11/3 8/12/3
f 6/13/3 2/13/3 5/14/3
f 10/49/4 9/15/4 12/17/4
f 8/50/5 6/18/5 12/20/5
f 11/51/6 7/21/6 12/23/6
f 6/52/3 5/24/3 10/26/3
f 14/53/1 16/27/1 13/29/1
f 17/48/2 19/4/2 21/6/2
f 17/30/3 13/30/3 19/31/3
f 20/32/3 16/32/3 18/33/3
f 19/34/3 15/34/3 20/35/3
f 18/36/3 14/36/3 17/37/3
f 22/54/4 21/38/4 24/40/4
f 20/50/5 18/18/5 24/20/5
f 19/55/6 20/41/6 23/43/6
f 18/56/3 17/44/3 22/46/3
f 25/57/2 26/58/2 27/59/2
f 34/60/7 31/61/7 30/62/7
f 26/63/4 29/64/4 30/65/4
f 30/62/3 31/61/3 27/66/3
f 27/67/1 31/68/1 32/69/1
f 25/70/6 28/71/6 32/72/6
f 32/72/8 34/73/8 33/74/8
f 35/75/2 36/76/2 37/77/2
f 44/78/7 41/79/7 40/80/7
f 35/81/4 39/82/4 40/83/4
f 40/80/3 41/79/3 37/84/3
f 37/85/1 41/86/1 42/87/1
f 35/88/6 38/89/6 42/90/6
f 42/90/8 44/91/8 43/92/8
f 45/93/2 46/59/2 47/94/2
f 54/95/7 51/96/7 50/97/7
f 45/98/4 49/99/4 50/100/4
f 50/97/3 51/96/3 47/101/3
f 47/76/1 51/102/1 52/103/1
f 45/104/6 48/105/6 52/106/6
f 52/106/8 54/107/8 53/108/8
f 55/109/2 56/110/2 57/111/2
f 64/112/7 61/113/7 60/114/7
f 56/76/4 59/115/4 60/102/4
f 60/114/3 61/113/3 57/116/3
f 57/117/1 61/118/1 62/119/1
f 55/120/6 58/121/6 62/122/6
f 62/122/8 64/123/8 63/124/8
f 65/125/2 66/77/2 67/126/2
f 74/127/7 71/128/7 70/129/7
f 65/94/4 69/103/4 70/130/4
f 70/129/3 71/128/3 67/131/3
f 67/110/1 71/130/1 72/132/1
f 65/133/6 68/134/6 72/135/6
f 72/135/8 74/136/8 73/137/8
f 28/93/2 25/57/2 27/59/2
f 33/138/9 34/60/9 30/62/9
f 29/64/4 26/63/4 25/139/4
f 29/64/4 33/140/4 30/65/4
f 26/141/3 30/62/3 27/66/3
f 32/69/1 28/142/1 27/67/1
f 31/68/1 34/143/1 32/69/1
f 29/144/6 25/70/6 32/72/6
f 29/144/10 32/72/10 33/74/10
f 38/125/2 35/75/2 37/77/2
f 43/145/9 44/78/9 40/80/9
f 40/83/4 36/146/4 35/81/4
f 39/82/4 43/147/4 40/83/4
f 36/148/3 40/80/3 37/84/3
f 42/87/1 38/149/1 37/85/1
f 41/86/1 44/150/1 42/87/1
f 39/151/6 35/88/6 42/90/6
f 39/151/10 42/90/10 43/92/10
f 48/152/2 45/93/2 47/94/2
f 53/153/9 54/95/9 50/97/9
f 50/100/4 46/154/4 45/98/4
f 49/99/4 53/155/4 50/100/4
f 46/156/3 50/97/3 47/101/3
f 52/103/1 48/94/1 47/76/1
f 51/102/1 54/157/1 52/103/1
f 49/158/6 45/104/6 52/106/6
f 49/158/10 52/106/10 53/108/10
f 58/159/2 55/109/2 57/111/2
f 63/160/9 64/112/9 60/114/9
f 59/115/4 56/76/4 55/161/4
f 59/115/4 63/162/4 60/102/4
f 56/163/3 60/114/3 57/116/3
f 62/119/1 58/164/1 57/117/1
f 61/118/1 64/165/1 62/119/1
f 59/166/6 55/120/6 62/122/6
f 59/166/10 62/122/10 63/124/10
f 68/167/2 65/125/2 67/126/2
f 73/168/9 74/127/9 70/129/9
f 70/130/4 66/110/4 65/94/4
f 69/103/4 73/169/4 70/130/4
f 66/170/3 70/129/3 67/131/3
f 72/132/1 68/171/1 67/110/1
f 71/130/1 74/172/1 72/132/1
f 69/173/6 65/133/6 72/135/6
f 69/173/10 72/135/10 73/137/10
